<?xml version="1.0" encoding="UTF-8" standalone="no"?>
<svg
   xmlns:dc="http://purl.org/dc/elements/1.1/"
   xmlns:cc="http://creativecommons.org/ns#"
   xmlns:rdf="http://www.w3.org/1999/02/22-rdf-syntax-ns#"
   xmlns:svg="http://www.w3.org/2000/svg"
   xmlns="http://www.w3.org/2000/svg"
   xmlns:xlink="http://www.w3.org/1999/xlink"
   xmlns:sodipodi="http://sodipodi.sourceforge.net/DTD/sodipodi-0.dtd"
   xmlns:inkscape="http://www.inkscape.org/namespaces/inkscape"
   width="55px"
   height="53px"
   viewBox="1391 243 55 53"
   version="1.1"
   id="svg90"
   sodipodi:docname="Logo.svg"
   inkscape:export-filename="/tmp/rustfest.svg.png"
   inkscape:export-xdpi="932.75"
   inkscape:export-ydpi="932.75"
   inkscape:version="0.92.1 r">
  <metadata
     id="metadata94">
    <rdf:RDF>
      <cc:Work
         rdf:about="">
        <dc:format>image/svg+xml</dc:format>
        <dc:type
           rdf:resource="http://purl.org/dc/dcmitype/StillImage" />
        <dc:title></dc:title>
      </cc:Work>
    </rdf:RDF>
  </metadata>
  <sodipodi:namedview
     pagecolor="#ffffff"
     bordercolor="#666666"
     borderopacity="1"
     objecttolerance="10"
     gridtolerance="10"
     guidetolerance="10"
     inkscape:pageopacity="0"
     inkscape:pageshadow="2"
     inkscape:window-width="1639"
     inkscape:window-height="949"
     id="namedview92"
     showgrid="false"
     inkscape:snap-object-midpoints="false"
     inkscape:zoom="4.4528302"
     inkscape:cx="39.739407"
     inkscape:cy="46.262712"
     inkscape:window-x="0"
     inkscape:window-y="0"
     inkscape:window-maximized="0"
     inkscape:current-layer="svg90" />
  <defs
     id="defs4">
    <ellipse
       cx="21.4471698"
       cy="21.5567308"
       rx="21.1415094"
       ry="21.1490385"
       id="ellipse2" />
  </defs>
  <rect
     id="rect3766"
     width="56.572033"
     height="56.572033"
     x="1389.8771"
     y="241"
     style="fill:#1191df;stroke-width:1.02858245;fill-opacity:1"
     inkscape:export-xdpi="932.75"
     inkscape:export-ydpi="932.75" />
  <g
     stroke="none"
     stroke-width="1"
     fill="none"
     fill-rule="evenodd"
     transform="translate(1391.000000, 243.000000)"
     id="g88">
    <g
       transform="translate(0.101887, 0.000000)"
       id="g62">
      <path
         d="M6.73333287,23.4521219 L6.8655463,30.2137115 L2.02472729,30.2137115 C2.02472729,30.2137115 0.493637446,29.2697083 0.493637446,26.7945825 C0.493637446,24.3194567 2.02472729,23.4521219 2.02472729,23.4521219 L6.73333287,23.4521219 Z"
         fill="#66A2F7"
         id="path6" />
      <path
         d="M9.90011105,38.9424817 L15.1222788,43.859367 L12.3153967,46.9071428 C12.3153967,46.9071428 9.90011114,46.9071428 8.44249824,45.3994938 C6.98488535,43.8918449 7.02222266,41.8478803 7.02222266,41.8478803 L9.90011105,38.9424817 Z"
         fill="#44F0D1"
         id="path8" />
      <path
         d="M23.3840892,47.3335322 L23.3840892,51.1825821 C23.3840892,51.1825821 24.0962564,52.695787 26.9643252,52.695787 C29.832394,52.695787 30.5445612,51.1825821 30.5445612,51.1825821 L30.5445612,47.4369651 L23.3840892,47.3335322 Z"
         fill="#7F7FE4"
         id="path10" />
      <path
         d="M38.7306468,43.7326615 L41.8887683,46.8396204 C41.8887683,46.8396204 43.9949074,46.8396204 45.6313919,45.252539 C47.2678764,43.6654575 47.0812787,41.7266058 47.0812787,41.7266058 L43.9949074,38.8025219 L38.7306468,43.7326615 Z"
         fill="#E6DA6E"
         id="path12" />
      <path
         d="M47.8867925,29.9297964 L47.8867925,22.9326923 L51.838841,23.0176933 C51.838841,23.0176933 53.1893052,23.7035671 53.1893052,26.4312443 C53.1893052,29.1589215 51.8388409,29.9297964 51.8388409,29.9297964 L47.8867925,29.9297964 Z"
         fill="#66A2F7"
         id="path14" />
      <path
         d="M41.7549103,6.75508025 C41.7549103,6.75508025 44.2982933,6.71816834 45.7192166,8.14805081 C47.1401399,9.57793328 46.8502903,11.8477187 46.8502903,11.8477187 L43.9253971,14.829106 C43.9253971,14.829106 38.9776082,10.0841605 38.8116251,9.92930652"
         fill="#44F0D1"
         id="path16" />
      <path
         d="M23.4797713,6.43989859 L23.4797713,1.61709555 C23.4797713,1.61709555 24.3084983,0.23980404 26.8825989,0.23980404 C29.4566995,0.23980404 30.2854265,1.61709555 30.2854265,1.61709555 L30.2854265,6.22023324 L23.4797713,6.43989859 Z"
         fill="#7F7FE4"
         id="path18" />
      <path
         d="M6.55151601,11.7278283 C6.55151601,11.7278283 5.83643871,9.44006847 7.75418785,7.59277074 C9.67193699,5.745473 12.1019369,6.11990361 12.1019369,6.11990361 L15.1873584,9.60387275 L10.0537879,14.9272369 L6.55151601,11.7278283 Z"
         fill="#E6DA6E"
         id="path20" />
      <g
         transform="translate(5.603774, 5.096154)"
         id="g60">
        <mask
           fill="white"
           id="mask24">
          <use
             xlink:href="#path-1"
             id="use22" />
        </mask>
        <g
           id="g26" />
        <polygon
           fill="#7F7FE4"
           mask="url(#mask-2)"
           points="8.95797815 39.2988418 15.2122986 31.790358 18.137818 33.4054542 17.6991031 43.8835026"
           id="polygon28" />
        <polygon
           fill="#09D4B0"
           mask="url(#mask-2)"
           points="8.93101756 39.4544858 13.7769286 33.5760163 9.15623395 28.9700295 3.7360719 34.2227155"
           id="polygon30" />
        <polygon
           fill="#44F0D1"
           mask="url(#mask-2)"
           points="3.91124349 34.0682283 9.78787364 28.3905385 8.07463416 24.8322475 -0.735405365 25.1496824"
           id="polygon32" />
        <polygon
           fill="#247EFF"
           mask="url(#mask-2)"
           points="-0.140866548 25.0609757 7.30449715 25.0609757 7.30449715 18.330362 -0.140866548 18.330362"
           id="polygon34" />
        <path
           d="M7.38205367,18.3984226 L9.2524804,13.665121 C9.2524804,13.665121 5.43515468,10.0746954 3.42078042,8.5373404 L3.20935763,9.05305598 L-0.0445626024,18.3984226 L7.38205367,18.3984226 Z"
           fill="#66A2F6"
           mask="url(#mask-2)"
           id="path36" />
        <polygon
           fill="#5252C9"
           mask="url(#mask-2)"
           points="17.7269331 42.9202338 24.9980135 43.1606164 24.7683272 35.781415 17.9393995 35.781415"
           id="polygon38" />
        <polygon
           fill="#E6DA6E"
           mask="url(#mask-2)"
           points="24.7357784 35.7790213 28.9427732 33.7663114 34.0440534 39.5790699 24.9403374 43.4070552"
           id="polygon40" />
        <path
           d="M33.6789202,39.2443797 C33.6789202,39.2443797 37.5932708,36.1040767 38.9848741,34.2037493 L33.6789202,29.4795892 L28.9270319,33.8546334 L33.6789202,39.2443797 Z"
           fill="#CABD4B"
           mask="url(#mask-2)"
           id="path42" />
        <path
           d="M33.6152067,29.529652 L35.7390698,24.6141869 L42.5585357,24.7622035 C42.5585357,24.7622035 42.1144366,27.4226926 41.7437186,28.6047509 C41.1070946,30.6346679 39.1824684,34.462663 39.1824684,34.462663 L33.6152067,29.529652 Z"
           fill="#66A2F6"
           mask="url(#mask-2)"
           id="path44" />
        <polygon
           fill="#247EFF"
           mask="url(#mask-2)"
           points="35.7225632 24.6836422 35.6195914 17.7653607 43.0594795 17.8591472 42.4986137 24.8546847"
           id="polygon46" />
        <path
           d="M35.8490608,17.8038595 L33.9004898,13.9792105 L38.9800976,9.05488796 C38.9800976,9.05488796 40.7161543,12.169558 41.332116,13.7835062 C41.8356807,15.1029507 42.3386768,17.8550662 42.3386768,17.8550662 L35.8490608,17.8038595 Z"
           fill="#44F0D1"
           mask="url(#mask-2)"
           id="path48" />
        <polyline
           fill="#09D4B0"
           mask="url(#mask-2)"
           points="33.7656262 13.5817423 29.0384226 8.94330618 33.7656261 3.90842215 38.8786188 9.20498929 34.0209567 14.0558704"
           id="polyline50" />
        <polygon
           fill="#7F7FE4"
           mask="url(#mask-2)"
           points="29.0999548 8.963834 34.0915162 3.91977089 24.5900172 -0.169987153 24.5900172 7.36446975"
           id="polygon52" />
        <path
           d="M24.659667,7.29392994 L17.7479527,7.39140878 L17.7479527,0.409215196 C17.7479527,0.409215196 20.8047899,-0.287844335 22.3321476,-0.231318126 C23.0408132,-0.205091017 24.659667,0.625486861 24.659667,0.625486861 L24.659667,7.29392994 Z"
           fill="#5252C9"
           mask="url(#mask-2)"
           id="path54" />
        <polygon
           fill="#E6DA6E"
           mask="url(#mask-2)"
           points="13.7850712 9.38427888 17.7870126 7.65557413 17.787013 0.0577907571 8.81423368 3.96563089"
           id="polygon56" />
        <polygon
           fill="#CABD4B"
           mask="url(#mask-2)"
           points="9.14656591 13.8754691 14.1621485 9.69253587 8.78910282 3.61466497 3.41605719 8.95302601"
           id="polygon58" />
      </g>
    </g>
    <g
       transform="translate(23.026415, 10.701923)"
       id="g68">
      <path
         d="M3.81446011,0.106540507 C2.21209464,0.106540506 0.473378619,0.830659744 0.473378619,0.830659744 C0.473378619,0.830659744 1.82145744,4.69626474 3.81446011,4.68627001 C5.80746279,4.67627527 7.33436901,0.905327219 7.33436901,0.905327219 C7.33436901,0.905327219 5.41682558,0.106540507 3.81446011,0.106540507 Z"
         fill="#5252C9"
         id="path64" />
      <ellipse
         fill="#3124A1"
         cx="3.82075472"
         cy="2.24230768"
         rx="1.01886792"
         ry="1.01923077"
         id="ellipse66" />
    </g>
    <g
       transform="translate(27.026415, 39.900000) scale(1, -1) translate(-27.026415, -39.900000) translate(23.026415, 37.400000)"
       id="g74">
      <path
         d="M3.81446011,0.106540507 C2.21209464,0.106540506 0.473378619,0.830659744 0.473378619,0.830659744 C0.473378619,0.830659744 1.82145744,4.69626474 3.81446011,4.68627001 C5.80746279,4.67627527 7.33436901,0.905327219 7.33436901,0.905327219 C7.33436901,0.905327219 5.41682558,0.106540507 3.81446011,0.106540507 Z"
         fill="#5252C9"
         id="path70" />
      <path
         d="M3.82075472,3.26153845 C4.38345993,3.26153845 4.83962264,2.80521329 4.83962264,2.24230768 C4.83962264,1.67940207 4.38345993,1.22307691 3.82075472,1.22307691 C3.2580495,1.22307691 2.80188679,1.67940207 2.80188679,2.24230768 C2.80188679,2.80521329 3.2580495,3.26153845 3.82075472,3.26153845 Z"
         fill="#3124A1"
         id="path72" />
    </g>
    <g
       transform="translate(40.393704, 26.166188) scale(1, -1) rotate(-270.000000) translate(-40.393704, -26.166188) translate(36.393704, 23.666188)"
       id="g80">
      <path
         d="M3.81446011,0.106540507 C2.21209464,0.106540506 0.473378619,0.830659744 0.473378619,0.830659744 C0.473378619,0.830659744 1.82145744,4.69626474 3.81446011,4.68627001 C5.80746279,4.67627527 7.33436901,0.905327219 7.33436901,0.905327219 C7.33436901,0.905327219 5.41682558,0.106540507 3.81446011,0.106540507 Z"
         fill="#247EFF"
         id="path76" />
      <ellipse
         fill="#3124A1"
         cx="3.82075472"
         cy="2.24230768"
         rx="1.01886792"
         ry="1.01923077"
         id="ellipse78" />
    </g>
    <g
       transform="translate(13.398066, 26.675804) scale(-1, -1) rotate(-270.000000) translate(-13.398066, -26.675804) translate(9.398066, 24.175804)"
       id="g86">
      <path
         d="M3.81446011,0.407692314 C2.21209464,0.407692314 0.505133715,0.989551986 0.505133715,0.989551986 C0.505133715,0.989551986 1.82145744,4.99741655 3.81446011,4.98742182 C5.80746279,4.97742708 7.22444843,0.837028802 7.22444843,0.837028802 C7.22444843,0.837028802 5.41682558,0.407692314 3.81446011,0.407692314 Z"
         fill="#247EFF"
         id="path82" />
      <ellipse
         fill="#3124A1"
         cx="3.82075472"
         cy="2.24230768"
         rx="1.01886792"
         ry="1.01923077"
         id="ellipse84" />
    </g>
  </g>
  <text
     xml:space="preserve"
     style="font-style:normal;font-variant:normal;font-weight:normal;font-stretch:normal;font-size:13.33333302px;line-height:1.25;font-family:monospace;-inkscape-font-specification:monospace;letter-spacing:0px;word-spacing:0px;fill:#000000;fill-opacity:1;stroke:#000000;stroke-width:0.5;stroke-miterlimit:4;stroke-dasharray:none;stroke-opacity:1;"
     x="1402.9026"
     y="273.31781"
     id="text3770"><tspan
       sodipodi:role="line"
       id="tspan3768"
       x="1402.9026"
       y="273.31781">Züri</tspan></text>
</svg>
